<mxfile host="app.diagrams.net" agent="Mozilla/5.0 (Windows NT 10.0; Win64; x64) AppleWebKit/537.36 (KHTML, like Gecko) Chrome/128.0.0.0 Safari/537.36 Edg/128.0.0.0" version="24.7.12">
  <diagram name="第 1 页" id="PQK4u8WmeR9pwqDEYbdr">
    <mxGraphModel dx="1026" dy="481" grid="0" gridSize="10" guides="1" tooltips="1" connect="1" arrows="1" fold="1" page="0" pageScale="1" pageWidth="827" pageHeight="1169" math="0" shadow="0">
      <root>
        <mxCell id="0" />
        <mxCell id="1" parent="0" />
        <mxCell id="sLRj6tkCQKSvLOCuToB1-1" style="edgeStyle=orthogonalEdgeStyle;rounded=0;orthogonalLoop=1;jettySize=auto;html=1;exitX=0.5;exitY=1;exitDx=0;exitDy=0;entryX=0.5;entryY=0;entryDx=0;entryDy=0;" edge="1" parent="1" source="sLRj6tkCQKSvLOCuToB1-2" target="sLRj6tkCQKSvLOCuToB1-9">
          <mxGeometry relative="1" as="geometry" />
        </mxCell>
        <mxCell id="sLRj6tkCQKSvLOCuToB1-2" value="&lt;p style=&quot;text-indent: 21pt; font-size: 13px;&quot; class=&quot;MsoNormal&quot;&gt;&lt;font face=&quot;微软雅黑&quot;&gt;需求调研&lt;/font&gt;&lt;/p&gt;" style="rounded=1;whiteSpace=wrap;html=1;fontSize=12;glass=0;strokeWidth=1;shadow=0;align=left;" vertex="1" parent="1">
          <mxGeometry x="160" y="80" width="120" height="40" as="geometry" />
        </mxCell>
        <mxCell id="sLRj6tkCQKSvLOCuToB1-13" style="edgeStyle=none;curved=1;rounded=0;orthogonalLoop=1;jettySize=auto;html=1;exitX=0.5;exitY=1;exitDx=0;exitDy=0;fontSize=12;startSize=8;endSize=8;" edge="1" parent="1" source="sLRj6tkCQKSvLOCuToB1-4" target="sLRj6tkCQKSvLOCuToB1-12">
          <mxGeometry relative="1" as="geometry" />
        </mxCell>
        <mxCell id="sLRj6tkCQKSvLOCuToB1-4" value="&lt;p class=&quot;MsoNormal&quot; style=&quot;font-size: 12px;&quot;&gt;&lt;span style=&quot;font-family: 微软雅黑; font-size: 12px;&quot;&gt;测试环境部署&lt;/span&gt;&lt;/p&gt;" style="rounded=1;whiteSpace=wrap;html=1;fontSize=12;glass=0;strokeWidth=1;shadow=0;align=center;" vertex="1" parent="1">
          <mxGeometry x="160" y="320" width="120" height="40" as="geometry" />
        </mxCell>
        <mxCell id="sLRj6tkCQKSvLOCuToB1-5" style="edgeStyle=orthogonalEdgeStyle;rounded=0;orthogonalLoop=1;jettySize=auto;html=1;exitX=0.5;exitY=1;exitDx=0;exitDy=0;entryX=0.5;entryY=0;entryDx=0;entryDy=0;" edge="1" parent="1" source="sLRj6tkCQKSvLOCuToB1-6" target="sLRj6tkCQKSvLOCuToB1-2">
          <mxGeometry relative="1" as="geometry" />
        </mxCell>
        <mxCell id="sLRj6tkCQKSvLOCuToB1-6" value="开始" style="ellipse;whiteSpace=wrap;html=1;fillColor=#dae8fc;strokeColor=#6c8ebf;" vertex="1" parent="1">
          <mxGeometry x="190" y="10" width="60" height="50" as="geometry" />
        </mxCell>
        <mxCell id="sLRj6tkCQKSvLOCuToB1-7" value="结束" style="ellipse;whiteSpace=wrap;html=1;fillColor=#d5e8d4;strokeColor=#82b366;" vertex="1" parent="1">
          <mxGeometry x="190" y="828" width="60" height="50" as="geometry" />
        </mxCell>
        <mxCell id="sLRj6tkCQKSvLOCuToB1-8" style="edgeStyle=orthogonalEdgeStyle;rounded=0;orthogonalLoop=1;jettySize=auto;html=1;exitX=0.5;exitY=1;exitDx=0;exitDy=0;" edge="1" parent="1" source="sLRj6tkCQKSvLOCuToB1-9" target="sLRj6tkCQKSvLOCuToB1-11">
          <mxGeometry relative="1" as="geometry" />
        </mxCell>
        <mxCell id="sLRj6tkCQKSvLOCuToB1-9" value="&lt;p style=&quot;font-size: 12px;&quot; class=&quot;MsoNormal&quot;&gt;&lt;span style=&quot;font-family: 微软雅黑; font-size: 12px;&quot;&gt;需求确认&lt;/span&gt;&lt;/p&gt;" style="rounded=1;whiteSpace=wrap;html=1;fontSize=12;glass=0;strokeWidth=1;shadow=0;align=center;" vertex="1" parent="1">
          <mxGeometry x="160" y="160" width="120" height="40" as="geometry" />
        </mxCell>
        <mxCell id="sLRj6tkCQKSvLOCuToB1-10" style="edgeStyle=orthogonalEdgeStyle;rounded=0;orthogonalLoop=1;jettySize=auto;html=1;exitX=0.5;exitY=1;exitDx=0;exitDy=0;" edge="1" parent="1" source="sLRj6tkCQKSvLOCuToB1-11" target="sLRj6tkCQKSvLOCuToB1-4">
          <mxGeometry relative="1" as="geometry" />
        </mxCell>
        <mxCell id="sLRj6tkCQKSvLOCuToB1-11" value="&lt;p class=&quot;MsoNormal&quot; style=&quot;text-indent: 21pt; font-size: 12px;&quot;&gt;&lt;span style=&quot;font-family: 微软雅黑; font-size: 12px;&quot;&gt;开发&lt;/span&gt;&lt;span style=&quot;font-family: 微软雅黑; font-size: 12px;&quot;&gt;&lt;/span&gt;&lt;/p&gt;" style="rounded=1;whiteSpace=wrap;html=1;fontSize=12;glass=0;strokeWidth=1;shadow=0;align=center;" vertex="1" parent="1">
          <mxGeometry x="160" y="240" width="120" height="40" as="geometry" />
        </mxCell>
        <mxCell id="sLRj6tkCQKSvLOCuToB1-15" style="edgeStyle=none;curved=1;rounded=0;orthogonalLoop=1;jettySize=auto;html=1;exitX=0.5;exitY=1;exitDx=0;exitDy=0;entryX=0.5;entryY=0;entryDx=0;entryDy=0;fontSize=12;startSize=8;endSize=8;" edge="1" parent="1" source="sLRj6tkCQKSvLOCuToB1-12" target="sLRj6tkCQKSvLOCuToB1-14">
          <mxGeometry relative="1" as="geometry" />
        </mxCell>
        <mxCell id="sLRj6tkCQKSvLOCuToB1-12" value="&lt;p class=&quot;MsoNormal&quot; style=&quot;font-size: 12px;&quot;&gt;&lt;font face=&quot;微软雅黑&quot;&gt;测试&lt;/font&gt;&lt;/p&gt;" style="rounded=1;whiteSpace=wrap;html=1;fontSize=12;glass=0;strokeWidth=1;shadow=0;align=center;" vertex="1" parent="1">
          <mxGeometry x="160" y="413" width="120" height="40" as="geometry" />
        </mxCell>
        <mxCell id="sLRj6tkCQKSvLOCuToB1-19" style="edgeStyle=none;curved=1;rounded=0;orthogonalLoop=1;jettySize=auto;html=1;exitX=0.5;exitY=1;exitDx=0;exitDy=0;entryX=0.5;entryY=0;entryDx=0;entryDy=0;fontSize=12;startSize=8;endSize=8;" edge="1" parent="1" source="sLRj6tkCQKSvLOCuToB1-14" target="sLRj6tkCQKSvLOCuToB1-17">
          <mxGeometry relative="1" as="geometry" />
        </mxCell>
        <mxCell id="sLRj6tkCQKSvLOCuToB1-14" value="&lt;p class=&quot;MsoNormal&quot; style=&quot;font-size: 12px;&quot;&gt;&lt;font face=&quot;微软雅黑&quot;&gt;操作文档输出&lt;/font&gt;&lt;/p&gt;" style="rounded=1;whiteSpace=wrap;html=1;fontSize=12;glass=0;strokeWidth=1;shadow=0;align=center;" vertex="1" parent="1">
          <mxGeometry x="160" y="500" width="120" height="40" as="geometry" />
        </mxCell>
        <mxCell id="sLRj6tkCQKSvLOCuToB1-21" style="edgeStyle=none;curved=1;rounded=0;orthogonalLoop=1;jettySize=auto;html=1;exitX=0.5;exitY=1;exitDx=0;exitDy=0;entryX=0.5;entryY=0;entryDx=0;entryDy=0;fontSize=12;startSize=8;endSize=8;" edge="1" parent="1" source="sLRj6tkCQKSvLOCuToB1-16" target="sLRj6tkCQKSvLOCuToB1-18">
          <mxGeometry relative="1" as="geometry" />
        </mxCell>
        <mxCell id="sLRj6tkCQKSvLOCuToB1-16" value="&lt;p class=&quot;MsoNormal&quot; style=&quot;font-size: 12px;&quot;&gt;&lt;font face=&quot;微软雅黑&quot;&gt;正式环境部署&lt;/font&gt;&lt;/p&gt;" style="rounded=1;whiteSpace=wrap;html=1;fontSize=12;glass=0;strokeWidth=1;shadow=0;align=center;" vertex="1" parent="1">
          <mxGeometry x="160" y="650" width="120" height="40" as="geometry" />
        </mxCell>
        <mxCell id="sLRj6tkCQKSvLOCuToB1-20" style="edgeStyle=none;curved=1;rounded=0;orthogonalLoop=1;jettySize=auto;html=1;exitX=0.5;exitY=1;exitDx=0;exitDy=0;entryX=0.5;entryY=0;entryDx=0;entryDy=0;fontSize=12;startSize=8;endSize=8;" edge="1" parent="1" source="sLRj6tkCQKSvLOCuToB1-17" target="sLRj6tkCQKSvLOCuToB1-16">
          <mxGeometry relative="1" as="geometry" />
        </mxCell>
        <mxCell id="sLRj6tkCQKSvLOCuToB1-17" value="&lt;p class=&quot;MsoNormal&quot; style=&quot;font-size: 12px;&quot;&gt;&lt;font face=&quot;微软雅黑&quot;&gt;操作文档审核&lt;/font&gt;&lt;/p&gt;" style="rounded=1;whiteSpace=wrap;html=1;fontSize=12;glass=0;strokeWidth=1;shadow=0;align=center;" vertex="1" parent="1">
          <mxGeometry x="160" y="575" width="120" height="40" as="geometry" />
        </mxCell>
        <mxCell id="sLRj6tkCQKSvLOCuToB1-22" style="edgeStyle=none;curved=1;rounded=0;orthogonalLoop=1;jettySize=auto;html=1;exitX=0.5;exitY=1;exitDx=0;exitDy=0;entryX=0.5;entryY=0;entryDx=0;entryDy=0;fontSize=12;startSize=8;endSize=8;" edge="1" parent="1" source="sLRj6tkCQKSvLOCuToB1-18" target="sLRj6tkCQKSvLOCuToB1-7">
          <mxGeometry relative="1" as="geometry" />
        </mxCell>
        <mxCell id="sLRj6tkCQKSvLOCuToB1-18" value="&lt;p class=&quot;MsoNormal&quot; style=&quot;font-size: 12px;&quot;&gt;&lt;font face=&quot;微软雅黑&quot;&gt;操作文档发布&lt;/font&gt;&lt;/p&gt;" style="rounded=1;whiteSpace=wrap;html=1;fontSize=12;glass=0;strokeWidth=1;shadow=0;align=center;" vertex="1" parent="1">
          <mxGeometry x="160" y="730" width="120" height="40" as="geometry" />
        </mxCell>
      </root>
    </mxGraphModel>
  </diagram>
</mxfile>
